{"title":"Fatima.2015.1080p.WEBRip.H264.AC3.HORiZON-ArtSubs","uid":15058200,"size":1557348239,"categoryP":"video","categoryS":"movies","magnet":"?xt=urn:btih:09b3244cce02ebbf8db4ae9a7e28284fd573c4af&amp;dn=Fatima.2015.1080p.WEBRip.H264.AC3.HORiZON-ArtSubs&amp;tr=udp%3A%2F%2Ftracker.leechers-paradise.org%3A6969&amp;tr=udp%3A%2F%2Fzer0day.ch%3A1337&amp;tr=udp%3A%2F%2Fopen.demonii.com%3A1337&amp;tr=udp%3A%2F%2Ftracker.coppersurfer.tk%3A6969&amp;tr=udp%3A%2F%2Fexodus.desync.com%3A6969","seeders":2,"leechers":2,"uploader":"noriegaRJ","files":1,"time":1466743314,"description":"Title: Fatima\r\n\r\nRelease: Fatima.2015.1080p.WEBRip.H264.AC3.HORiZON-ArtSubs\r\n\r\n\r\nIMDB Link:  \nhttp://www.imdb.com/title/tt4466544/\r\n\r\n\r\nPlot: Fatima lives on her own with two daughters to support: 15-year old Souad, a teenager in revolt, and 18-year old Nesrine, who is starting medical school. Fatima speaks French poorly and is constantly frustrated by her daily interactions with her daughters. Her pride and joy, they are also a source of worry. To ensure the best possible future for them, she works odd hours as a cleaning woman. One day, she takes a fall on the stairs. On leave, Fatima begins to write to her daughters in Arabic that which she has never been able to express in French.\r\n\r\n\r\nFRENCH SUBTITLE INSIDE MKV FILE.\r\n\r\n\r\n\r\nGeneral\r\nComplete name                            : Fatima.2015.1080p.WEBRip.H264.AC3.HORiZON-ArtSubs\r\nFormat                                   : Matroska\r\nFormat version                           : Version 2\r\nFile size                                : 1.45 GiB\r\nDuration                                 : 1h 18mn\r\nOverall bit rate                         : 2 656 Kbps\r\nWriting application                      : HandBrake 0.9.5\r\nWriting library                          : libmkv 0.6.4.1\r\n\r\nVideo\r\nID                                       : 1\r\nFormat                                   : AVC\r\nFormat/Info                              : Advanced Video Codec\r\nFormat profile                           :   \r\nFormat settings, CABAC                   : Yes\r\nFormat settings, ReFrames                : 4 frames\r\nCodec ID                                 : V_MPEG4/ISO/AVC\r\nDuration                                 : 1h 18mn\r\nBit rate                                 : 2 295 Kbps\r\nWidth                                    : 1 904 pixels\r\nHeight                                   : 1 024 pixels\r\nDisplay aspect ratio                     : 1.85:1\r\nOriginal display aspect ratio            : 1.85:1\r\nFrame rate mode                          : Constant\r\nFrame rate                               : 24.000 fps\r\nColor space                              : YUV\r\nChroma subsampling                       : 4:2:0\r\nBit depth                                : 8 bits\r\nScan type                                : Progressive\r\nBits/(Pixel*Frame)                       : 0.049\r\nStream size                              : 1.21 GiB (84%)\r\nWriting library                          : x264 core 112\r\nLanguage                                 : English\r\nDefault                                  : Yes\r\nForced                                   : No\r\nColor primaries                          : BT.709\r\nTransfer characteristics                 : BT.709\r\nMatrix coefficients                      : BT.709\r\n\r\nAudio\r\nID                                       : 2\r\nFormat                                   : AC-3\r\nFormat/Info                              : Audio Coding 3\r\nMode extension                           : CM (complete main)\r\nFormat settings, Endianness              : Big\r\nCodec ID                                 : A_AC3\r\nDuration                                 : 1h 18mn\r\nBit rate mode                            : Constant\r\nBit rate                                 : 384 Kbps\r\nChannel count                            : 6 channels\r\nChannel positions                        : Front: L C R, Side: L R, LFE\r\nSampling rate                            : 48.0 KHz\r\nBit depth                                : 16 bits\r\nCompression mode                         : Lossy\r\nStream size                              : 215 MiB (14%)\r\nLanguage                                 : French\r\nDefault                                  : Yes\r\nForced                                   : No\r\n\r\nText\r\nID                                       : 3\r\nFormat                                   : UTF-8\r\nCodec ID                                 : S_TEXT/UTF8\r\nCodec ID/Info                            : UTF-8 Plain Text\r\nLanguage                                 : French\r\nDefault                                  : No\r\nForced                                   : No\r\n\r\n\r\n\r\nThanks to those helping me seed. Leechers remember, the community depends on you. If nobody shares, the freebies go away. Remember, the only reason you can download this free movie is because others are generous enough to keep sharing it with you. If nobody shares, everybody loses, so even if its for an extra hour or two after you get it, remember, others want to see it too, and they can't without you.\r\n\r\n\r\nSEE MY OTHERS UPLOADS:                                                                                    \nhttp://thepiratebay.se/user/noriegaRJ\r\n\r\nAND SEE THIS ANOTHERS UPLOADS FROM &quot;HORiZON-ArtSubs&quot;:                                    \nhttp://thepiratebay.se/user/artsubs                                    \nhttp://thepiratebay.se/user/lletaif","torrent":{"xt":"urn:btih:09b3244cce02ebbf8db4ae9a7e28284fd573c4af","amp;dn":"Fatima.2015.1080p.WEBRip.H264.AC3.HORiZON-ArtSubs","amp;tr":["udp%3A%2F%2Ftracker.leechers-paradise.org%3A6969","udp%3A%2F%2Fzer0day.ch%3A1337","udp%3A%2F%2Fopen.demonii.com%3A1337","udp%3A%2F%2Ftracker.coppersurfer.tk%3A6969","udp%3A%2F%2Fexodus.desync.com%3A6969"],"infoHash":"09b3244cce02ebbf8db4ae9a7e28284fd573c4af","infoHashBuffer":{"type":"Buffer","data":[9,179,36,76,206,2,235,191,141,180,174,154,126,40,40,79,213,115,196,175]},"announce":[],"urlList":[]}}